solid Base_Water
facet normal -0.0000000 142.3549957 0.0000000
outer loop
vertex -10.0249996 -10.0249996 0.1000000
vertex 10.0249996 -10.0249996 0.1000000
vertex -10.0249996 -10.0249996 -7.0000000
endloop
endfacet
facet normal 0.0000000 142.3549957 0.0000000
outer loop
vertex -10.0249996 -10.0249996 -7.0000000
vertex 10.0249996 -10.0249996 0.1000000
vertex 10.0249996 -10.0249996 -7.0000000
endloop
endfacet
facet normal -142.3549957 0.0000000 0.0000000
outer loop
vertex 10.0249996 -10.0249996 0.1000000
vertex 10.0249996 10.0249996 0.1000000
vertex 10.0249996 -10.0249996 -7.0000000
endloop
endfacet
facet normal -142.3549957 0.0000000 0.0000000
outer loop
vertex 10.0249996 -10.0249996 -7.0000000
vertex 10.0249996 10.0249996 0.1000000
vertex 10.0249996 10.0249996 -7.0000000
endloop
endfacet
facet normal -0.0000000 -142.3549957 -0.0000000
outer loop
vertex 10.0249996 10.0249996 0.1000000
vertex -10.0249996 10.0249996 0.1000000
vertex 10.0249996 10.0249996 -7.0000000
endloop
endfacet
facet normal 0.0000000 -142.3549957 0.0000000
outer loop
vertex 10.0249996 10.0249996 -7.0000000
vertex -10.0249996 10.0249996 0.1000000
vertex -10.0249996 10.0249996 -7.0000000
endloop
endfacet
facet normal 142.3549957 0.0000000 0.0000000
outer loop
vertex -10.0249996 10.0249996 0.1000000
vertex -10.0249996 -10.0249996 0.1000000
vertex -10.0249996 10.0249996 -7.0000000
endloop
endfacet
facet normal 142.3549957 0.0000000 0.0000000
outer loop
vertex -10.0249996 10.0249996 -7.0000000
vertex -10.0249996 -10.0249996 0.1000000
vertex -10.0249996 -10.0249996 -7.0000000
endloop
endfacet
facet normal -28.9055214 28.9055214 0.0000000
outer loop
vertex -16.9750004 12.9038000 0.1000000
vertex -12.9038000 16.9750004 0.1000000
vertex -16.9750004 12.9038000 -7.0000000
endloop
endfacet
facet normal -28.9055214 28.9055214 0.0000000
outer loop
vertex -16.9750004 12.9038000 -7.0000000
vertex -12.9038000 16.9750004 0.1000000
vertex -12.9038000 16.9750004 -7.0000000
endloop
endfacet
facet normal -0.0000000 183.2339630 0.0000000
outer loop
vertex -12.9038000 16.9750004 0.1000000
vertex 12.9038000 16.9750004 0.1000000
vertex -12.9038000 16.9750004 -7.0000000
endloop
endfacet
facet normal 0.0000000 183.2339630 0.0000000
outer loop
vertex -12.9038000 16.9750004 -7.0000000
vertex 12.9038000 16.9750004 0.1000000
vertex 12.9038000 16.9750004 -7.0000000
endloop
endfacet
facet normal 28.9055214 28.9055214 0.0000000
outer loop
vertex 12.9038000 16.9750004 0.1000000
vertex 16.9750004 12.9038000 0.1000000
vertex 12.9038000 16.9750004 -7.0000000
endloop
endfacet
facet normal 28.9055214 28.9055214 0.0000000
outer loop
vertex 12.9038000 16.9750004 -7.0000000
vertex 16.9750004 12.9038000 0.1000000
vertex 16.9750004 12.9038000 -7.0000000
endloop
endfacet
facet normal 183.2339630 0.0000000 0.0000000
outer loop
vertex 16.9750004 12.9038000 0.1000000
vertex 16.9750004 -12.9038000 0.1000000
vertex 16.9750004 12.9038000 -7.0000000
endloop
endfacet
facet normal 183.2339630 0.0000000 0.0000000
outer loop
vertex 16.9750004 12.9038000 -7.0000000
vertex 16.9750004 -12.9038000 0.1000000
vertex 16.9750004 -12.9038000 -7.0000000
endloop
endfacet
facet normal 28.9055214 -28.9055214 0.0000000
outer loop
vertex 16.9750004 -12.9038000 0.1000000
vertex 12.9038000 -16.9750004 0.1000000
vertex 16.9750004 -12.9038000 -7.0000000
endloop
endfacet
facet normal 28.9055214 -28.9055214 0.0000000
outer loop
vertex 16.9750004 -12.9038000 -7.0000000
vertex 12.9038000 -16.9750004 0.1000000
vertex 12.9038000 -16.9750004 -7.0000000
endloop
endfacet
facet normal -0.0000000 -183.2339630 -0.0000000
outer loop
vertex 12.9038000 -16.9750004 0.1000000
vertex -12.9038000 -16.9750004 0.1000000
vertex 12.9038000 -16.9750004 -7.0000000
endloop
endfacet
facet normal 0.0000000 -183.2339630 0.0000000
outer loop
vertex 12.9038000 -16.9750004 -7.0000000
vertex -12.9038000 -16.9750004 0.1000000
vertex -12.9038000 -16.9750004 -7.0000000
endloop
endfacet
facet normal -28.9055214 -28.9055214 -0.0000000
outer loop
vertex -12.9038000 -16.9750004 0.1000000
vertex -16.9750004 -12.9038000 0.1000000
vertex -12.9038000 -16.9750004 -7.0000000
endloop
endfacet
facet normal -28.9055214 -28.9055214 0.0000000
outer loop
vertex -12.9038000 -16.9750004 -7.0000000
vertex -16.9750004 -12.9038000 0.1000000
vertex -16.9750004 -12.9038000 -7.0000000
endloop
endfacet
facet normal -183.2339630 0.0000000 0.0000000
outer loop
vertex -16.9750004 -12.9038000 0.1000000
vertex -16.9750004 12.9038000 0.1000000
vertex -16.9750004 -12.9038000 -7.0000000
endloop
endfacet
facet normal -183.2339630 0.0000000 0.0000000
outer loop
vertex -16.9750004 -12.9038000 -7.0000000
vertex -16.9750004 12.9038000 0.1000000
vertex -16.9750004 12.9038000 -7.0000000
endloop
endfacet
facet normal 0.0000000 0.0000000 179.3628235
outer loop
vertex -10.0249996 -10.0249996 0.1000000
vertex -12.9038000 -16.9750004 0.1000000
vertex 12.9038000 -16.9750004 0.1000000
endloop
endfacet
facet normal 0.0000000 0.0000000 40.0150185
outer loop
vertex -10.0249996 -10.0249996 0.1000000
vertex -16.9750004 -12.9038000 0.1000000
vertex -12.9038000 -16.9750004 0.1000000
endloop
endfacet
facet normal -0.0000000 0.0000000 139.3475037
outer loop
vertex -10.0249996 -10.0249996 0.1000000
vertex 12.9038000 -16.9750004 0.1000000
vertex 10.0249996 -10.0249996 0.1000000
endloop
endfacet
facet normal 0.0000000 0.0000000 139.3475037
outer loop
vertex -10.0249996 10.0249996 0.1000000
vertex -16.9750004 -12.9038000 0.1000000
vertex -10.0249996 -10.0249996 0.1000000
endloop
endfacet
facet normal 0.0000000 0.0000000 40.0150185
outer loop
vertex 10.0249996 -10.0249996 0.1000000
vertex 12.9038000 -16.9750004 0.1000000
vertex 16.9750004 -12.9038000 0.1000000
endloop
endfacet
facet normal 0.0000000 0.0000000 179.3628235
outer loop
vertex -10.0249996 10.0249996 0.1000000
vertex -16.9750004 12.9038000 0.1000000
vertex -16.9750004 -12.9038000 0.1000000
endloop
endfacet
facet normal -0.0000000 0.0000000 179.3628235
outer loop
vertex 10.0249996 -10.0249996 0.1000000
vertex 16.9750004 -12.9038000 0.1000000
vertex 16.9750004 12.9038000 0.1000000
endloop
endfacet
facet normal 0.0000000 0.0000000 40.0150185
outer loop
vertex -10.0249996 10.0249996 0.1000000
vertex -12.9038000 16.9750004 0.1000000
vertex -16.9750004 12.9038000 0.1000000
endloop
endfacet
facet normal 0.0000000 0.0000000 139.3475037
outer loop
vertex 10.0249996 -10.0249996 0.1000000
vertex 16.9750004 12.9038000 0.1000000
vertex 10.0249996 10.0249996 0.1000000
endloop
endfacet
facet normal 0.0000000 0.0000000 139.3475037
outer loop
vertex 10.0249996 10.0249996 0.1000000
vertex -12.9038000 16.9750004 0.1000000
vertex -10.0249996 10.0249996 0.1000000
endloop
endfacet
facet normal 0.0000000 0.0000000 40.0150185
outer loop
vertex 10.0249996 10.0249996 0.1000000
vertex 16.9750004 12.9038000 0.1000000
vertex 12.9038000 16.9750004 0.1000000
endloop
endfacet
facet normal 0.0000000 -0.0000000 179.3628235
outer loop
vertex 10.0249996 10.0249996 0.1000000
vertex 12.9038000 16.9750004 0.1000000
vertex -12.9038000 16.9750004 0.1000000
endloop
endfacet
facet normal 0.0000000 0.0000000 -40.0150185
outer loop
vertex -12.9038000 -16.9750004 -7.0000000
vertex -16.9750004 -12.9038000 -7.0000000
vertex -10.0249996 -10.0249996 -7.0000000
endloop
endfacet
facet normal 0.0000000 0.0000000 -179.3628387
outer loop
vertex 12.9038000 -16.9750004 -7.0000000
vertex -12.9038000 -16.9750004 -7.0000000
vertex -10.0249996 -10.0249996 -7.0000000
endloop
endfacet
facet normal -0.0000000 0.0000000 -139.3475037
outer loop
vertex -10.0249996 -10.0249996 -7.0000000
vertex -16.9750004 -12.9038000 -7.0000000
vertex -10.0249996 10.0249996 -7.0000000
endloop
endfacet
facet normal -0.0000000 -0.0000000 -139.3475037
outer loop
vertex 10.0249996 -10.0249996 -7.0000000
vertex 12.9038000 -16.9750004 -7.0000000
vertex -10.0249996 -10.0249996 -7.0000000
endloop
endfacet
facet normal 0.0000000 0.0000000 -179.3628387
outer loop
vertex -16.9750004 -12.9038000 -7.0000000
vertex -16.9750004 12.9038000 -7.0000000
vertex -10.0249996 10.0249996 -7.0000000
endloop
endfacet
facet normal -0.0000000 0.0000000 -40.0150185
outer loop
vertex 16.9750004 -12.9038000 -7.0000000
vertex 12.9038000 -16.9750004 -7.0000000
vertex 10.0249996 -10.0249996 -7.0000000
endloop
endfacet
facet normal 0.0000000 0.0000000 -40.0150185
outer loop
vertex -16.9750004 12.9038000 -7.0000000
vertex -12.9038000 16.9750004 -7.0000000
vertex -10.0249996 10.0249996 -7.0000000
endloop
endfacet
facet normal 0.0000000 -0.0000000 -179.3628387
outer loop
vertex 16.9750004 12.9038000 -7.0000000
vertex 16.9750004 -12.9038000 -7.0000000
vertex 10.0249996 -10.0249996 -7.0000000
endloop
endfacet
facet normal 0.0000000 0.0000000 -139.3475037
outer loop
vertex -10.0249996 10.0249996 -7.0000000
vertex -12.9038000 16.9750004 -7.0000000
vertex 10.0249996 10.0249996 -7.0000000
endloop
endfacet
facet normal 0.0000000 0.0000000 -139.3475037
outer loop
vertex 10.0249996 10.0249996 -7.0000000
vertex 16.9750004 12.9038000 -7.0000000
vertex 10.0249996 -10.0249996 -7.0000000
endloop
endfacet
facet normal 0.0000000 0.0000000 -179.3628387
outer loop
vertex -12.9038000 16.9750004 -7.0000000
vertex 12.9038000 16.9750004 -7.0000000
vertex 10.0249996 10.0249996 -7.0000000
endloop
endfacet
facet normal 0.0000000 -0.0000000 -40.0150185
outer loop
vertex 12.9038000 16.9750004 -7.0000000
vertex 16.9750004 12.9038000 -7.0000000
vertex 10.0249996 10.0249996 -7.0000000
endloop
endfacet
endsolid Base_Water
